<svg width="120" height="120" viewBox="0 0 120 120" fill="none" xmlns="http://www.w3.org/2000/svg">
<g clip-path="url(#clip0_10528_5738)">
<rect width="120" height="120" rx="60" fill="#B8B4FE"/>
<path d="M135.891 155.131C134.154 148.496 132.358 142.517 130.681 136.719C127.447 125.659 124.392 115.258 121.757 101.927C120.739 97.0246 113.912 91.7639 101.335 86.2641C97.2026 84.4707 90.4351 81.7806 81.2721 78.9709L78.2177 76.3406C77.7985 75.9819 77.4991 75.4439 77.4392 74.9059L76.421 66.8953C76.421 66.9551 76.421 67.0149 76.4809 67.1344L76.2414 62.2922C76.2414 62.1726 76.1815 62.0531 76.0617 61.9933C76.0018 61.9933 76.0018 61.9335 75.9419 61.9335C76.7804 59.7216 81.0325 48.1243 82.949 38.0214C84.6858 28.8152 79.7748 20.6851 67.4975 19.609C65.9404 19.4894 64.3833 19.3699 62.946 19.3699C61.0295 16.5602 57.7955 14.8864 54.3818 14.7668C52.645 14.707 50.5489 15.0657 49.3511 16.4406C48.6923 17.2178 48.4527 18.0547 48.5725 18.8319C43.5418 18.3536 39.649 20.7448 38.6309 22.1198C36.4749 24.9892 36.2952 28.5761 37.2535 31.9238C37.1337 33.0596 37.4331 35.5106 37.6128 36.228C38.0919 38.2007 39.1699 39.3963 39.8287 39.9343C39.8287 40.1137 39.8287 40.2332 39.8287 40.2332L39.7089 48.3036C38.8106 57.3304 39.11 68.5094 40.8468 70.781C41.7451 71.9766 44.2605 72.3353 46.177 72.4549C45.9973 73.3516 45.5182 75.4439 44.9792 77.8351C39.9485 79.5687 13.5972 88.5358 10.7225 91.5248C9.40494 92.8998 4.97314 101.628 -0.416896 119.92L-4.90859 127.692L-5.14815 124.583C-4.9086 124.524 -4.78882 124.344 -4.78882 124.105L-5.80693 112.029C-5.86682 111.551 -6.10638 111.073 -6.46572 110.774C-6.82505 110.475 -7.30417 110.356 -7.78328 110.475L-7.96295 110.535C-8.20251 107.247 -8.50196 103.899 -8.92118 102.225C-9.69974 99.1767 -10.9574 98.6985 -13.353 97.8615C-13.7123 97.742 -14.1315 97.5626 -14.6107 97.4431C-15.2096 97.2039 -15.8683 97.0844 -16.5271 96.905C-17.665 96.6659 -18.8628 96.367 -19.7012 95.6497C-20.7793 94.6932 -21.0188 93.0193 -21.1985 91.5248C-21.2584 91.2857 -21.2584 91.0466 -21.3183 90.8075C-21.3781 90.4488 -21.438 90.0901 -21.4979 89.7314C-21.6177 89.0738 -21.7375 88.3565 -21.7974 87.6989C-22.1567 84.7696 -24.2528 83.2751 -25.9896 83.4545C-27.0676 83.574 -28.2654 84.411 -28.0857 86.5033C-27.966 87.6391 -27.966 92.5411 -27.966 95.829C-28.7445 93.0193 -29.7626 89.1934 -30.0022 88.476L-30.3017 87.7586C-31.0802 85.6663 -31.9187 83.4545 -33.1763 81.6013C-34.0148 80.3459 -35.8115 78.1938 -38.5664 78.0742C-39.7642 78.0144 -40.9021 78.4927 -41.6207 79.2698C-43.1778 77.5362 -44.8547 76.8786 -46.6514 77.2971C-48.3882 77.6558 -49.3464 78.9112 -49.4662 80.7643C-50.0651 80.7046 -50.6041 80.8241 -51.1431 81.123C-53.1794 82.3784 -52.5805 84.949 -52.2211 86.3837C-51.3228 90.0303 -47.6097 97.6822 -47.2503 97.9811C-44.3756 100.313 -41.3213 102.465 -38.3268 104.557C-37.1889 105.334 -36.051 106.111 -34.973 106.948C-34.7933 107.068 -34.6137 107.187 -34.434 107.307C-33.7752 107.725 -32.9967 108.263 -32.7571 108.921C-32.5774 109.459 -32.3379 112.209 -32.1582 115.138L-35.7516 115.796C-36.5301 115.915 -37.0691 116.633 -37.129 117.41L-37.6081 129.186C-37.6081 129.306 -37.6081 129.485 -37.4884 129.545C-37.4285 129.605 -37.4285 129.605 -37.0691 129.605C-36.7098 129.605 -36.1109 129.545 -34.8532 129.366C-34.2543 134.746 -33.2362 144.789 -32.1582 160.571C-31.9187 164.576 -25.7501 170.435 -19.821 174.082C-17.1859 175.696 -10.7179 179.342 -7.00472 177.788C-0.89601 175.277 14.7351 164.816 16.412 160.272C16.412 160.212 16.4719 160.212 16.4719 160.153L17.3103 168.522L11.3813 219.276C11.3813 219.395 11.3813 219.515 11.5011 219.574C11.561 219.634 11.6807 219.694 11.8005 219.694L19.7059 219.335C19.8856 219.335 20.0053 219.216 20.0652 219.096L20.9037 216.825L76.5408 216.705L77.9782 219.574C78.0381 219.694 78.1578 219.814 78.3375 219.814H108.881C109.001 219.814 109.121 219.754 109.18 219.694C109.24 219.634 109.3 219.515 109.3 219.395L105.827 190.162C122.176 194.467 131.579 194.287 136.31 189.565C142 183.886 140.263 171.69 135.891 155.131ZM76.2414 66.5366C76.3612 66.5964 76.421 66.7757 76.421 66.8355C76.421 66.7159 76.3612 66.6562 76.2414 66.5366Z" fill="black"/>
<path d="M-38.6261 71.3788C-37.3085 71.3788 -36.0508 70.9006 -35.0327 69.8843L-22.6955 57.6293C-21.917 56.8522 -20.839 56.3739 -19.7011 56.3739H10.4233C13.8968 56.3739 16.7116 53.5643 16.7116 50.097V-11.5964C16.7116 -15.0636 13.8968 -17.8733 10.4233 -17.8733H-89.7116C-93.1852 -17.8733 -96 -15.0636 -96 -11.5964V50.1568C-96 53.624 -93.1852 56.4337 -89.7116 56.4337H-57.5511C-56.4132 56.4337 -55.3352 56.8522 -54.5566 57.6891L-42.2194 69.9441C-41.2612 70.9006 -39.9436 71.3788 -38.6261 71.3788Z" fill="black"/>
<path d="M10.3621 -17.4548H-89.7129C-92.9469 -17.4548 -95.582 -14.8245 -95.582 -11.5964V50.1568C-95.582 53.3849 -92.9469 56.0153 -89.7129 56.0153H-57.5523C-56.2947 56.0153 -55.1568 56.4935 -54.2584 57.3902L-41.9212 69.6452C-40.1246 71.4386 -37.1301 71.4386 -35.3334 69.6452L-22.9962 57.3902C-22.0979 56.4935 -20.96 56.0153 -19.7023 56.0153H10.422C13.656 56.0153 16.2911 53.3849 16.2911 50.1568V-11.5964C16.2313 -14.8245 13.5961 -17.4548 10.3621 -17.4548ZM-63.1819 38.1409C-63.1819 41.0104 -65.5176 43.282 -68.3324 43.282C-71.1472 43.282 -73.4829 40.9506 -73.4829 38.1409V37.3638C-73.4829 36.8258 -73.0637 36.4073 -72.5247 36.4073H-64.0803C-63.5413 36.4073 -63.122 36.8258 -63.122 37.3638C-63.1819 37.3638 -63.1819 38.1409 -63.1819 38.1409ZM-62.5231 28.8152C-62.8825 28.9347 -63.122 29.2934 -63.122 29.7119V31.9238C-63.122 32.4618 -63.5413 32.8802 -64.0803 32.8802H-72.5247C-73.0637 32.8802 -73.4829 32.4618 -73.4829 31.9238V29.7119C-73.4829 29.2934 -73.7224 28.9347 -74.0818 28.8152C-80.6097 26.4837 -85.2212 20.2666 -85.2212 12.9734C-85.2212 4.00631 -78.2141 -3.34668 -69.2906 -3.8847C-68.7516 -3.94448 -68.2725 -3.46624 -68.2725 -2.92821V12.0169C-68.2725 12.5549 -67.8533 12.9734 -67.3143 12.9734H-52.342C-51.803 12.9734 -51.3837 13.4516 -51.3837 13.9896C-51.8629 20.8046 -56.3546 26.5435 -62.5231 28.8152ZM-48.1497 9.32677H-63.122C-63.661 9.32677 -64.0803 8.90831 -64.0803 8.37028V-6.57482C-64.0803 -7.11284 -63.6012 -7.5313 -63.0622 -7.5313C-54.498 -7.05306 -47.6706 -0.238097 -47.1915 8.3105C-47.1915 8.9083 -47.6107 9.32677 -48.1497 9.32677ZM-32.0395 38.9778C-32.0395 40.7115 -33.4768 42.1462 -35.2136 42.1462C-36.9504 42.1462 -38.3878 40.7115 -38.3878 38.9778V1.07707C-38.3878 -0.656558 -36.9504 -2.09129 -35.2136 -2.09129C-33.4768 -2.09129 -32.0395 -0.656558 -32.0395 1.07707V38.9778ZM-19.882 38.9778C-19.882 40.7115 -21.3193 42.1462 -23.0561 42.1462C-24.7929 42.1462 -26.2302 40.7115 -26.2302 38.9778V15.8428C-26.2302 14.1092 -24.7929 12.6745 -23.0561 12.6745C-21.3193 12.6745 -19.882 14.1092 -19.882 15.8428V38.9778ZM-7.72446 38.9778C-7.72446 40.7115 -9.16179 42.1462 -10.8986 42.1462C-12.6354 42.1462 -14.0727 40.7115 -14.0727 38.9778V21.6415C-14.0727 19.9079 -12.6354 18.4732 -10.8986 18.4732C-9.16179 18.4732 -7.72446 19.9079 -7.72446 21.6415V38.9778ZM3.53473 38.9778C3.53473 40.7115 2.09738 42.1462 0.360595 42.1462C-1.37619 42.1462 -2.81353 40.7115 -2.81353 38.9778V27.2609C-2.81353 25.5273 -1.37619 24.0925 0.360595 24.0925C2.09738 24.0925 3.53473 25.5273 3.53473 27.2609V38.9778ZM67.0772 198.113L76.3601 216.346L21.0224 216.466L27.6701 197.635L67.0772 198.113ZM41.2051 70.5419C39.5282 68.4496 39.2886 57.3304 40.187 48.3634L40.3068 40.2332C40.3068 40.2332 40.3666 38.0214 40.3666 35.8693C40.3666 35.391 41.8639 35.0323 42.343 35.2117C44.0798 35.929 48.0325 37.0649 51.9852 35.2715C55.6983 33.5976 60.4295 34.9128 62.346 35.6899C62.885 35.929 63.1845 36.4073 63.1246 37.0051C62.9449 38.9181 62.5257 44.5972 62.5855 45.3146C62.5855 45.3146 63.1845 47.7058 64.6218 49.4992C65.6399 46.0917 68.814 44.0592 71.7486 44.8363C74.7431 45.6733 76.3601 49.1405 75.4019 52.6078C74.5634 55.5968 72.0481 57.5695 69.4129 57.5098C69.9519 58.8847 70.4909 60.0803 70.9102 60.6184C72.7667 63.1291 75.881 62.2324 75.881 62.2324L76.1205 66.8355L77.1387 74.9059C77.1985 75.5634 77.5579 76.1613 78.037 76.5797L81.1512 79.21L72.5871 107.008C72.4074 108.742 70.4909 109.1 69.5327 107.666L55.9977 86.2044L42.6424 105.573C42.0435 106.53 40.6661 106.231 40.5463 105.095L43.3611 88.5358C43.96 84.8294 46.8347 71.9766 46.8347 71.9766H46.8946C44.9182 71.9766 42.1034 71.6777 41.2051 70.5419ZM87.739 182.989C89.5357 176.174 95.1054 151.903 95.1054 151.903L110.856 156.028L116.127 123.806L105.706 122.132L104.688 107.964L49.2901 111.97L51.506 142.757C50.3083 142.577 49.35 142.398 49.1105 142.338C48.5715 142.159 47.9726 141.979 47.3737 142.159C46.2358 142.517 46.0561 143.833 46.0561 144.849C46.0561 146.104 46.3556 147.419 46.9545 148.555C47.0742 148.794 48.0924 149.093 48.2121 149.332C48.3918 149.691 48.3319 149.811 48.2121 150.169C48.0325 150.707 47.9127 151.245 47.8528 151.783C47.6731 153.816 49.4698 155.908 50.8473 157.463C49.7094 159.136 51.3264 162.903 53.0632 164.995V165.174L49.0506 189.923L103.909 198.831L105.406 189.684L87.739 182.989ZM66.4185 123.328L108.401 130.143L107.383 136.539L65.4003 129.724L66.4185 123.328ZM-6.22723 112.089L-5.2091 124.165C-5.2091 124.165 -37.2499 129.724 -37.19 129.306L-36.7109 117.529C-36.7109 116.931 -36.2318 116.393 -35.6928 116.334L-31.7401 115.557C-31.9197 112.807 -32.2192 109.519 -32.3988 108.861C-32.6983 107.845 -33.956 107.247 -34.7944 106.649C-38.8669 103.72 -43.119 100.851 -47.0717 97.6822C-47.2514 97.5626 -50.9645 90.0901 -51.8629 86.3239C-52.2222 84.7098 -52.7013 82.5578 -50.9645 81.5415C-50.3057 81.123 -49.647 81.123 -49.0481 81.3621C-49.1678 79.7481 -48.5689 78.1938 -46.5926 77.7753C-44.4965 77.2971 -42.8795 78.4927 -41.6218 79.9872C-41.0229 79.0307 -39.8251 78.4927 -38.5674 78.5525C-36.4114 78.672 -34.6746 80.1665 -33.5367 81.9002C-32.1593 83.9327 -31.3208 86.3837 -30.4225 88.7151C-30.0033 89.7912 -27.5478 99.1169 -27.5478 99.1169C-27.5478 99.1169 -27.4879 88.2967 -27.6676 86.5033C-28.0269 82.5578 -22.7567 83.0958 -22.1578 87.8184C-22.038 88.8347 -21.8583 89.9107 -21.6787 90.927C-21.4391 92.6009 -21.3193 94.753 -19.9419 96.0083C-18.5644 97.2637 -16.4084 97.204 -14.7315 97.8615C-11.3777 99.1169 -10.1799 99.0571 -9.28157 102.345C-8.80246 104.079 -8.50302 107.606 -8.32335 111.013L-7.66457 110.894C-7.00578 110.774 -6.28712 111.312 -6.22723 112.089Z" fill="white"/>
<path d="M82.9501 38.0213C80.7941 49.2601 75.8232 62.2922 75.8232 62.2922C75.8232 62.2922 72.709 63.1889 70.8524 60.6781C70.4332 60.0803 69.8942 58.8847 69.3552 57.5695C71.9304 57.6293 74.5057 55.6566 75.3441 52.6675C76.3024 49.2003 74.6854 45.733 71.6909 44.8961C68.7563 44.0592 65.5822 46.1515 64.5641 49.559C63.1267 47.8253 62.5278 45.3743 62.5278 45.3743C62.4679 44.657 62.8872 38.9778 63.0668 37.0649C63.1267 36.5268 62.8273 35.9888 62.2883 35.7497C60.3119 34.9128 55.6406 33.5976 51.9274 35.3312C47.9747 37.1246 44.022 35.9888 42.2852 35.2715C41.866 35.0921 40.3688 35.4508 40.3089 35.929C40.3089 38.0811 40.249 40.293 40.249 40.293C40.249 40.293 38.3326 39.0376 37.6738 36.2877C37.4941 35.5704 37.1947 33.1194 37.3144 31.9835C36.3562 28.6956 36.5958 25.049 38.6919 22.1795C39.71 20.8046 43.6028 18.4732 48.6335 18.8916C48.5736 18.0547 48.7533 17.2776 49.4121 16.5004C50.6099 15.0657 52.6461 14.7668 54.4428 14.8266C57.8565 14.9461 61.0905 16.62 63.0069 19.4296C64.5042 19.4894 66.0014 19.5492 67.5585 19.6688C79.7759 20.685 84.6869 28.8152 82.9501 38.0213ZM108.463 130.143L66.4805 123.328L65.4624 129.724L107.445 136.539L108.463 130.143ZM-64.0781 -6.57482V8.37028C-64.0781 8.9083 -63.6589 9.32676 -63.1199 9.32676H-48.1476C-47.6086 9.32676 -47.1893 8.84852 -47.1893 8.31049C-47.6685 -0.238103 -54.4958 -7.05307 -63.06 -7.53131C-63.6589 -7.53131 -64.0781 -7.11285 -64.0781 -6.57482ZM-19.8798 38.9778V15.8428C-19.8798 14.1092 -21.3172 12.6745 -23.054 12.6745C-24.7908 12.6745 -26.2281 14.1092 -26.2281 15.8428V38.9778C-26.2281 40.7115 -24.7908 42.1462 -23.054 42.1462C-21.3172 42.0864 -19.8798 40.7115 -19.8798 38.9778ZM3.53688 38.9778V27.2609C3.53688 25.5272 2.09953 24.0925 0.362742 24.0925C-1.37405 24.0925 -2.81138 25.5272 -2.81138 27.2609V38.9778C-2.81138 40.7115 -1.37405 42.1462 0.362742 42.1462C2.15942 42.0864 3.53688 40.7115 3.53688 38.9778Z" fill="#8D57F6"/>
<path d="M67.4376 192.853L67.3179 197.695L27.3717 197.276C27.3717 197.276 29.2882 145.686 31.025 128.529C32.642 112.687 41.6254 79.3894 41.6254 79.3894C43.3023 78.7916 44.6198 78.3731 45.3385 78.134C44.5001 82.0197 43.5418 86.6228 43.2424 88.5956L40.4276 105.155C40.5474 106.291 41.9248 106.589 42.5237 105.633L54.0823 88.8945L49.5906 95.4105L49.411 103.78C42.4638 127.333 40.5474 181.674 40.6671 181.973L47.0753 191.777C47.3148 192.135 47.8539 192.195 48.0934 191.836L49.5308 189.923L67.4376 192.853ZM57.2565 111.312L73.6063 110.117L81.0325 79.2698L72.4683 107.068C72.2887 108.801 70.3722 109.16 69.414 107.725L62.1674 96.2475L57.6158 104.557C57.496 105.812 57.3762 108.204 57.2565 111.312ZM55.9389 86.4435L55.8191 86.2641L55.6395 86.5033C55.7592 86.4435 55.879 86.4435 55.9389 86.4435ZM-32.0385 38.9778V1.07707C-32.0385 -0.656563 -33.4758 -2.09129 -35.2126 -2.09129C-36.9494 -2.09129 -38.3867 -0.656563 -38.3867 1.07707V38.9778C-38.3867 40.7115 -36.9494 42.1462 -35.2126 42.1462C-33.4758 42.0864 -32.0385 40.7115 -32.0385 38.9778ZM-7.72341 38.9778V21.6415C-7.72341 19.9079 -9.16074 18.4732 -10.8975 18.4732C-12.6343 18.4732 -14.0717 19.9079 -14.0717 21.6415V38.9778C-14.0717 40.7115 -12.6343 42.1462 -10.8975 42.1462C-9.16074 42.0864 -7.72341 40.7115 -7.72341 38.9778Z" fill="#E99842"/>
<path d="M135.892 155.131C134.156 148.496 132.359 142.517 130.682 136.719C127.448 125.659 124.394 115.258 121.759 101.927C120.74 97.0246 113.913 91.7041 101.336 86.2641C97.204 84.4707 90.4365 81.7806 81.2735 78.9709L78.2191 76.3406C77.7999 75.9819 77.5004 75.4439 77.4405 74.9059L76.4224 66.8355C76.4224 66.6562 76.3026 66.5366 76.123 66.4768C75.9433 66.417 75.8235 66.4768 75.7038 66.6562C75.584 66.8355 64.3248 82.0197 55.8804 80.585C52.7063 80.047 50.2508 77.1177 48.6937 71.9168C48.6338 71.7375 48.514 71.6179 48.3343 71.6179H46.7173C46.4778 71.6179 46.358 71.7375 46.2981 71.9168C46.2981 71.9766 45.6992 74.607 45.0404 77.8351C39.9498 79.5687 13.5986 88.5358 10.7239 91.5248C9.40631 92.8998 4.97451 101.628 -0.415525 119.92L-4.90722 127.692L-5.14678 124.583C-5.44623 124.643 -5.68579 124.703 -5.92535 124.703C-23.7724 127.812 -31.4981 129.007 -34.792 129.426C-34.1931 134.806 -33.175 144.849 -32.097 160.631C-31.8574 164.636 -25.6888 170.495 -19.7598 174.141C-17.1246 175.755 -10.6566 179.402 -6.94346 177.848C-0.834755 175.337 14.7964 164.875 16.4733 160.332C16.4733 160.272 16.5331 160.272 16.5331 160.212L17.3716 168.582L11.4425 219.335C11.4425 219.455 11.4426 219.574 11.5623 219.634C11.6222 219.694 11.742 219.754 11.8618 219.754L19.7672 219.395C19.9468 219.395 20.0666 219.276 20.1265 219.156L20.9649 216.884L76.6021 216.765L78.0394 219.634C78.0993 219.754 78.2191 219.873 78.3988 219.873H108.942C109.062 219.873 109.182 219.814 109.242 219.754C109.302 219.694 109.362 219.574 109.362 219.455L105.828 190.162C122.178 194.467 131.58 194.287 136.312 189.565C142.001 183.886 140.264 171.69 135.892 155.131ZM46.9569 72.4549H47.975C49.6519 77.7753 52.287 80.8241 55.7606 81.3621C59.5336 82.0197 64.1451 79.8078 69.5351 74.7863C72.4098 72.0962 74.7455 69.2267 75.8235 67.9116L76.7219 74.9656C76.8416 75.7428 77.201 76.4004 77.74 76.8786L80.6147 79.3894L72.1104 106.948V107.008C72.0505 107.606 71.6912 108.024 71.2719 108.144C70.7329 108.263 70.1939 108.024 69.8346 107.486L56.2996 86.025C56.2397 85.9055 56.12 85.8457 55.9403 85.8457C55.8205 85.8457 55.7007 85.9055 55.581 86.025L42.2256 105.394C41.9861 105.753 41.6267 105.812 41.3872 105.753C41.0877 105.693 40.9081 105.454 40.8482 105.155L43.663 88.6553C44.1421 85.3674 46.5377 74.4874 46.9569 72.4549ZM21.1446 216.107L27.6725 197.695L67.0797 198.113L76.123 215.928L21.1446 216.107ZM110.799 156.028L95.048 151.903C95.048 151.903 89.5382 176.174 87.6816 182.989L105.289 189.624C105.409 189.684 105.588 189.684 105.708 189.744L105.469 191.179L105.289 189.684L103.792 198.831L67.3791 192.912L67.2594 197.336L27.3731 196.918C27.433 195.901 27.4929 193.151 27.6725 189.146C27.6725 188.907 27.6725 188.608 27.7324 188.309C28.3912 172.766 29.7687 141.202 31.0263 128.529C32.5236 113.763 40.429 83.9327 41.507 79.8676C42.6449 79.4492 43.7229 79.0905 44.8009 78.7318C44.0223 82.4382 43.124 86.6826 42.8245 88.5358L40.0097 105.095C40.0097 105.155 40.0097 105.155 40.0097 105.215C40.0696 105.932 40.5487 106.47 41.1476 106.589C41.8064 106.769 42.4652 106.47 42.8245 105.872L49.5321 96.1877L49.3525 103.78C42.4053 127.333 40.4889 181.674 40.6086 181.973L47.0168 191.777C47.2563 192.135 47.7953 192.195 48.0349 191.836L49.4722 189.923L49.1129 189.864L53.1255 165.114V164.935C51.3288 162.843 49.7118 159.136 50.9096 157.403C49.5321 155.908 47.6756 153.816 47.9151 151.724C47.975 151.126 48.0948 150.648 48.2745 150.11C48.3942 149.691 48.4541 149.631 48.2745 149.273C48.1547 148.974 47.1965 148.735 47.0168 148.496C46.4179 147.36 46.1184 146.104 46.1184 144.789C46.1184 143.773 46.2981 142.458 47.436 142.099C48.0349 141.92 48.6338 142.099 49.1728 142.278C49.4123 142.338 50.3706 142.517 51.5684 142.697L49.3525 111.91L57.4375 111.312C57.5573 108.204 57.6771 105.812 57.737 104.557L62.049 96.6659L69.1758 107.964C69.6549 108.682 70.3736 109.04 71.0324 109.04C71.212 109.04 71.3318 109.04 71.5115 108.981C72.2901 108.801 72.8291 108.084 72.9488 107.187L79.6564 85.487L73.7274 110.117L104.75 107.905L105.768 122.073L116.189 123.746L110.799 156.028ZM-63.1795 37.3638V38.1409C-63.1795 41.0104 -65.5152 43.282 -68.33 43.282C-71.1448 43.282 -73.4805 40.9506 -73.4805 38.1409V37.3638C-73.4805 36.8257 -73.0612 36.4073 -72.5222 36.4073H-64.0778C-63.5987 36.4073 -63.1795 36.8257 -63.1795 37.3638ZM-51.4412 13.9299C-51.8604 20.8046 -56.3521 26.5435 -62.5207 28.8152C-62.88 28.9347 -63.1196 29.2934 -63.1196 29.7119V31.9238C-63.1196 32.4618 -63.5388 32.8802 -64.0778 32.8802H-72.5222C-73.0612 32.8802 -73.4805 32.4618 -73.4805 31.9238V29.7119C-73.4805 29.2934 -73.72 28.9347 -74.0793 28.8152C-80.6073 26.4837 -85.2188 20.2666 -85.2188 12.9734C-85.2188 4.00631 -78.2117 -3.34668 -69.2882 -3.8847C-68.7492 -3.94448 -68.2701 -3.46624 -68.2701 -2.92822V12.0169C-68.2701 12.5549 -67.8509 12.9734 -67.3119 12.9734H-52.3395C-51.8604 12.9734 -51.3813 13.3918 -51.4412 13.9299Z" fill="#3779E3"/>
<path d="M16.6517 -11.5964C16.6517 -15.0636 13.8369 -17.8733 10.3634 -17.8733H-89.7116C-93.1852 -17.8733 -96 -15.0636 -96 -11.5964V50.1568C-96 53.624 -93.1852 56.4337 -89.7116 56.4337H-57.5511C-56.4132 56.4337 -55.3352 56.8522 -54.5566 57.6891L-42.2194 69.9441C-41.2013 70.9006 -39.9436 71.4386 -38.6261 71.4386C-37.3085 71.4386 -36.0508 70.9603 -35.0327 69.9441L-22.6955 57.6891C-21.917 56.912 -20.839 56.4337 -19.7011 56.4337H10.4233C13.8968 56.4337 16.7116 53.624 16.7116 50.1568L16.6517 -11.5964ZM15.8133 50.1568C15.8133 53.1458 13.3578 55.5968 10.3634 55.5968H-19.7609C-21.1384 55.5968 -22.3961 56.1348 -23.3543 57.0913L-35.6915 69.3463C-37.3684 70.9603 -40.0035 70.9603 -41.6804 69.3463L-54.0176 57.0913C-54.9758 56.1348 -56.2335 55.5968 -57.611 55.5968H-89.7116C-92.7061 55.5968 -95.1616 53.1458 -95.1616 50.1568V-11.5964C-95.1616 -14.5854 -92.7061 -17.0364 -89.7116 -17.0364H10.4233C13.4177 -17.0364 15.8732 -14.5854 15.8732 -11.5964L15.8133 50.1568ZM19.0473 104.975L17.0111 158.718C17.0111 158.957 16.8314 159.136 16.5918 159.136C16.3523 159.136 16.1726 158.957 16.1726 158.718L18.2089 104.975C18.2089 104.736 18.4484 104.557 18.6281 104.557C18.9275 104.557 19.1072 104.736 19.0473 104.975ZM-4.78862 124.105L-5.80674 112.029C-5.86663 111.551 -6.10619 111.073 -6.46553 110.774C-6.82486 110.475 -7.30397 110.356 -7.78309 110.475L-7.96276 110.535C-8.20231 107.247 -8.50176 103.899 -8.92099 102.225C-9.69955 99.1767 -10.9572 98.6985 -13.3528 97.8615C-13.7121 97.742 -14.1314 97.5626 -14.6105 97.4431C-15.2094 97.2039 -15.8681 97.0844 -16.5269 96.905C-17.6648 96.6659 -18.8626 96.367 -19.7011 95.6496C-20.7791 94.6932 -21.0186 93.0193 -21.1983 91.5248C-21.2582 91.2857 -21.2582 91.0466 -21.3181 90.8074C-21.378 90.4488 -21.4378 90.0901 -21.4977 89.7314C-21.6175 89.0738 -21.7373 88.3564 -21.7972 87.6989C-22.1565 84.7696 -24.2526 83.2751 -25.9894 83.4545C-27.0674 83.574 -28.2652 84.4109 -28.0856 86.5033C-27.9658 87.6391 -27.9658 92.5411 -27.9658 95.829C-28.7443 93.0193 -29.7625 89.1934 -30.002 88.476L-30.3015 87.7586C-31.08 85.6663 -31.9185 83.4544 -33.1761 81.6013C-34.0146 80.3459 -35.8113 78.1938 -38.5662 78.0742C-39.764 78.0144 -40.9019 78.4927 -41.6205 79.2698C-43.1777 77.5362 -44.8546 76.8786 -46.6512 77.2971C-48.388 77.6558 -49.3463 78.9111 -49.466 80.7643C-50.0649 80.7046 -50.6039 80.8241 -51.1429 81.123C-53.1792 82.3784 -52.5803 84.949 -52.2209 86.3837C-51.3226 90.0303 -47.6095 97.6822 -47.2501 97.9811C-44.3754 100.313 -41.3211 102.465 -38.3266 104.557C-37.1887 105.334 -36.0508 106.111 -34.9728 106.948C-34.7932 107.068 -34.6135 107.187 -34.4338 107.307C-33.775 107.725 -32.9965 108.263 -32.7569 108.921C-32.5773 109.459 -32.3377 112.209 -32.158 115.138L-35.7514 115.796C-36.5299 115.915 -37.0689 116.633 -37.1288 117.41L-37.608 129.186C-37.608 129.306 -37.608 129.485 -37.4882 129.545C-37.4283 129.605 -37.3684 129.605 -37.0689 129.605C-35.8113 129.605 -30.4212 128.888 -5.14796 124.524C-4.90841 124.524 -4.72873 124.344 -4.78862 124.105ZM-33.9547 106.649C-34.1344 106.53 -34.314 106.41 -34.4937 106.291C-35.6316 105.513 -36.7096 104.676 -37.8475 103.899C-40.7821 101.807 -43.8364 99.6549 -46.7111 97.3833C-47.1303 96.7257 -50.544 89.7314 -51.4424 86.2044C-51.8616 84.5305 -52.161 82.7371 -50.7836 81.8404C-50.3644 81.6013 -49.8853 81.5415 -49.466 81.661C-48.927 83.3349 -45.693 93.3182 -43.4771 95.6496C-43.4172 95.7094 -43.2974 95.7692 -43.1777 95.7692C-43.0579 95.7692 -42.9381 95.7094 -42.8782 95.6496C-42.6985 95.4703 -42.6985 95.2312 -42.8782 95.0518C-45.0342 92.7802 -48.4479 82.0795 -48.7474 81.2426C-48.8072 80.047 -48.5078 78.5525 -46.6512 78.134C-45.0342 77.7753 -43.6568 78.4329 -42.1595 80.1665C-41.8601 81.2426 -39.225 90.6879 -37.6678 93.3182C-37.608 93.4378 -37.4283 93.5573 -37.3085 93.5573C-37.2486 93.5573 -37.1887 93.5573 -37.1288 93.4976C-36.9492 93.378 -36.8294 93.1389 -36.9492 92.8998C-38.3865 90.389 -40.9019 81.4817 -41.3211 80.047C-40.7821 79.3296 -39.764 78.8514 -38.7458 78.9709C-36.4102 79.0905 -34.7932 81.0035 -34.0146 82.1393C-32.8168 83.9327 -32.0382 86.0848 -31.2597 88.1173L-30.9602 88.8347C-30.541 89.9107 -28.1454 99.1169 -28.0856 99.2365C-28.0257 99.4158 -27.846 99.5952 -27.6064 99.5354C-27.3669 99.5354 -27.2471 99.356 -27.2471 99.1169C-27.2471 98.6985 -27.1872 88.2967 -27.3669 86.5033C-27.4867 85.2479 -26.9477 84.4707 -25.9894 84.3512C-24.612 84.2316 -22.995 85.5468 -22.6955 87.8782C-22.6356 88.5956 -22.5159 89.2531 -22.3961 89.9705C-22.3362 90.3292 -22.2763 90.6879 -22.2164 90.9868C-22.1565 91.2259 -22.1565 91.465 -22.0966 91.7041C-21.8571 93.3182 -21.6175 95.1714 -20.2999 96.3072C-19.3417 97.2039 -18.0242 97.5028 -16.7066 97.742C-16.0478 97.8615 -15.4489 98.0409 -14.9099 98.2202C-14.4308 98.3995 -14.0116 98.5191 -13.6522 98.6985C-11.2567 99.5354 -10.4182 99.8343 -9.75944 102.465C-9.34021 104.079 -9.04076 107.426 -8.8012 110.714L-31.3196 115.019C-31.4992 112.328 -31.7388 109.339 -31.9784 108.742C-32.2778 107.785 -33.1761 107.187 -33.9547 106.649ZM-36.7695 128.828L-36.2904 117.529C-36.2904 117.111 -35.9909 116.752 -35.6316 116.692L-7.66331 111.372C-7.42375 111.312 -7.24409 111.372 -7.06442 111.491C-6.88475 111.611 -6.76497 111.85 -6.70508 112.149L-5.68696 123.806C-17.1857 125.779 -33.9547 128.589 -36.7695 128.828ZM-4.78862 128.947L-2.33317 147.778C-2.27328 148.017 -2.45294 148.197 -2.6925 148.256H-2.75239C-2.99195 148.256 -3.17161 148.077 -3.17161 147.898L-5.62708 129.067C-5.68697 128.828 -5.5073 128.648 -5.26774 128.589C-5.02818 128.529 -4.78862 128.708 -4.78862 128.947ZM50.9084 49.7383C49.8903 49.6188 49.9502 47.8253 50.609 47.1678C51.148 46.6297 51.5073 46.9286 51.687 47.2873C51.8666 47.646 51.9265 48.0645 51.8666 48.4829C51.8067 49.0807 51.5672 49.8579 50.9084 49.7383ZM49.8304 43.4016C49.5908 43.4614 49.3513 43.3418 49.2914 43.1027C49.2315 42.8636 49.3513 42.6244 49.5908 42.5647C53.6034 41.2495 55.999 43.9396 56.0589 44.0592C56.2385 44.2385 56.1787 44.5374 55.999 44.7168C55.9391 44.7765 55.8193 44.8363 55.6996 44.8363C55.5798 44.8363 55.46 44.7765 55.3402 44.657C55.2803 44.5374 53.304 42.3255 49.8304 43.4016ZM43.0629 46.2711C43.2426 46.6297 43.3025 47.0482 43.2426 47.4667C43.1827 48.0047 42.8832 48.7818 42.2843 48.722C41.2662 48.6025 41.3261 46.8091 41.9849 46.1515C42.5239 45.5537 42.8234 45.8526 43.0629 46.2711ZM47.0755 45.5537C45.0991 50.2763 43.542 55.6566 44.4404 56.4935C45.8777 57.8087 48.3931 56.8522 48.3931 56.8522C48.6326 56.7326 48.8722 56.8522 48.992 57.0913C49.1117 57.3304 48.9919 57.5695 48.7524 57.6891C48.6925 57.6891 47.6744 58.1076 46.4766 58.1076C45.5783 58.1076 44.62 57.9282 43.8415 57.2109C42.0448 55.5968 45.5184 46.9884 46.237 45.2548C46.3568 45.0157 46.5964 44.8961 46.8359 45.0157C47.0755 45.0754 47.1953 45.3743 47.0755 45.5537ZM46.2969 63.0096C46.2969 62.7704 46.5365 62.5911 46.776 62.5911C50.9084 63.0693 53.3639 59.4227 53.3639 59.363C53.4836 59.1836 53.7831 59.1238 53.9628 59.2434C54.1424 59.363 54.2023 59.6619 54.0825 59.8412C53.9628 60.0205 51.6271 63.4878 47.4947 63.4878C47.1953 63.4878 46.9557 63.4878 46.6563 63.428C46.4167 63.4878 46.237 63.3085 46.2969 63.0096ZM124.093 159.077L111.277 155.729L116.487 123.866C116.547 123.627 116.367 123.448 116.128 123.388L106.007 121.774L104.988 107.905C104.988 107.785 104.929 107.666 104.869 107.606C104.809 107.546 104.689 107.486 104.569 107.486L49.1716 111.491C48.9321 111.491 48.7524 111.731 48.7524 111.97L50.9683 142.219C50.07 142.039 49.3513 141.92 49.1716 141.86L49.0518 141.8C48.5128 141.621 47.8541 141.441 47.1953 141.681C45.5783 142.159 45.5783 144.072 45.5783 144.789C45.5783 146.164 45.8777 147.479 46.5365 148.675C46.6563 148.914 46.9557 149.093 47.3151 149.273C47.4348 149.332 47.7343 149.452 47.7343 149.452C47.7942 149.631 47.7942 149.631 47.7343 149.87L47.6744 149.99C47.5546 150.528 47.3749 151.066 47.3151 151.724C47.0755 153.876 48.9919 156.088 50.2496 157.463C49.8903 158.18 49.8903 159.136 50.1298 160.272C50.4892 161.946 51.5073 163.799 52.5853 165.114L48.5727 189.804C48.5727 189.923 48.5727 190.043 48.6326 190.103C48.6925 190.222 48.8123 190.282 48.9321 190.282L103.791 199.189H103.851C103.91 199.189 104.03 199.189 104.09 199.13C104.21 199.07 104.27 198.95 104.27 198.831L105.767 189.505L105.348 189.565L104.929 189.385L103.491 198.233L49.531 189.565L53.3639 165.892C53.5435 166.071 53.7232 166.191 53.843 166.31C53.1842 167.326 53.0045 168.223 53.2441 169.12C53.6034 170.315 54.921 171.332 57.1369 172.109C58.2149 172.467 62.2874 172.886 66.1802 173.304C68.456 173.543 70.5521 173.783 71.69 173.962C72.1092 174.022 72.5284 174.201 72.8878 174.38L75.7625 176.234L75.3432 178.326C75.1636 179.103 75.5828 179.88 76.3015 180.239L86.9618 185.141C87.0216 185.201 87.1414 185.201 87.2013 185.201C87.2612 185.201 87.3211 185.201 87.381 185.141C87.6804 185.021 88.0398 184.842 95.4061 152.381L123.854 159.854C123.913 159.854 123.913 159.854 123.973 159.854C124.153 159.854 124.333 159.734 124.393 159.555C124.452 159.376 124.333 159.136 124.093 159.077ZM49.6507 112.269L104.21 108.323L105.168 121.535L61.3291 114.421C61.2094 114.421 61.0896 114.421 61.0297 114.48C60.9099 114.54 60.85 114.66 60.85 114.779L56.2385 143.056C54.9809 142.876 53.2441 142.577 51.8666 142.338L49.6507 112.269ZM73.3669 173.663C72.8878 173.364 72.4087 173.185 71.8696 173.125C70.7318 172.946 68.5757 172.707 66.3 172.467C62.7665 172.109 58.3946 171.631 57.4363 171.272C55.5199 170.614 54.382 169.777 54.0825 168.881C53.9029 168.223 54.0825 167.506 54.6215 166.669C55.8792 166.848 61.2094 167.685 63.3654 167.984H63.4253C63.6049 167.984 63.8445 167.805 63.8445 167.625C63.9044 167.386 63.7247 167.207 63.4851 167.147C61.2094 166.848 55.4001 165.892 54.6215 165.772C53.3639 164.995 51.5672 162.424 51.0282 160.033C50.7886 159.077 50.8485 158.359 51.0881 157.821C52.8249 158.001 61.8681 158.838 65.4615 159.077C65.4615 159.077 65.4615 159.077 65.5214 159.077C65.761 159.077 65.9406 158.897 65.9406 158.658C65.9406 158.419 65.761 158.24 65.5214 158.18C61.8083 157.881 52.4056 157.044 51.0282 156.925C49.8903 155.609 48.0337 153.577 48.2134 151.724C48.2733 151.186 48.3931 150.648 48.5727 150.169L48.6326 150.05C48.6925 149.93 48.6925 149.811 48.6925 149.691C50.9084 149.99 59.1731 151.006 62.2874 151.664H62.3473C62.5269 151.664 62.7066 151.544 62.7665 151.305C62.8264 151.066 62.6467 150.827 62.467 150.827C59.0534 150.11 49.7106 148.914 48.3931 148.794C48.2134 148.675 47.9738 148.555 47.7343 148.436C47.6145 148.376 47.3749 148.256 47.3151 148.256C46.7162 147.18 46.4766 145.985 46.4766 144.789C46.4766 143.414 46.776 142.697 47.4947 142.517C47.6145 142.458 47.7343 142.458 47.8541 142.458C48.1535 142.458 48.5128 142.577 48.8722 142.637L48.992 142.697C49.8304 142.936 56.9572 144.012 57.2567 144.072C57.3764 144.072 57.5561 144.072 57.616 143.952C58.3946 143.115 60.6105 140.903 61.4489 140.425C63.3654 139.349 65.3417 139.947 66.3 140.963C68.456 143.115 73.7262 147.957 73.7262 148.017C73.7861 148.077 73.7861 148.077 73.846 148.077L81.0327 151.126L75.9421 175.337L73.3669 173.663ZM86.9618 184.184L76.6608 179.462C76.3015 179.282 76.0619 178.864 76.1817 178.505L82.2904 149.452C82.3503 149.213 82.4701 148.974 82.7096 148.854C82.8294 148.794 83.0091 148.735 83.1288 148.735C83.1887 148.735 83.3085 148.735 83.3684 148.794L94.5677 152.202C91.8727 164.098 87.8601 181.494 86.9618 184.184ZM95.2265 151.485L83.6678 147.957C83.1887 147.838 82.7096 147.898 82.2904 148.137C81.8712 148.376 81.5717 148.794 81.4519 149.273L81.2124 150.349L74.2652 147.419C73.7262 146.881 68.8752 142.458 66.8988 140.425C65.7011 139.17 63.3055 138.452 61.0297 139.768C60.0116 140.306 57.7957 142.637 57.1369 143.295H57.077L61.6286 115.497L115.649 124.284L110.558 155.669L95.2265 151.485ZM46.1771 72.4549C44.3206 72.3353 41.8052 71.9766 40.847 70.781C39.1102 68.5094 38.8108 57.3304 39.7091 48.3036L39.8289 40.2332C39.8289 40.2332 39.8888 38.0214 39.8888 35.8693C39.8888 35.6899 39.9487 35.4508 40.308 35.2117C40.7871 34.853 41.925 34.6139 42.4041 34.853C43.9014 35.4508 47.8541 36.7062 51.7469 34.9128C56.2385 32.8802 61.8083 35.0921 62.467 35.3312C63.1857 35.6301 63.545 36.3475 63.4851 37.0649C63.3055 38.9778 62.8863 44.4776 62.9461 45.2548C63.006 45.4939 63.4852 47.1678 64.4434 48.6025C65.7609 45.4939 68.8752 43.6407 71.8098 44.4776C73.3669 44.8961 74.6246 46.0319 75.4031 47.5862C76.1218 49.1405 76.2416 50.9937 75.7625 52.7273C74.924 55.5968 72.5883 57.6891 70.0131 57.9282C70.612 59.4227 70.9713 60.0803 71.2109 60.3792C72.8279 62.5911 75.5828 61.8737 75.7026 61.8737C75.8224 61.8139 75.9421 61.8737 76.0619 61.9335C76.1817 61.9933 76.2416 62.1129 76.2416 62.2324L76.4811 67.0746C76.4811 66.9551 76.4811 66.8355 76.4212 66.8355C76.4212 66.7757 76.4212 66.5964 76.2416 66.5366C76.0619 66.4768 76.002 66.4768 75.8822 66.4768C75.7625 66.4768 75.7026 66.5964 75.7026 66.5964L75.5828 66.7159L75.4031 62.7107C74.385 62.8302 72.0493 62.89 70.4922 60.7977C70.073 60.2597 69.5939 59.1836 68.9351 57.5695C68.8752 57.45 68.8752 57.2706 68.995 57.1511C69.0549 57.0315 69.1746 56.9717 69.3543 56.9717C71.8098 57.0315 74.1454 55.1185 74.924 52.3687C75.3432 50.8144 75.2833 49.2003 74.6246 47.8253C73.9658 46.4504 72.8878 45.5537 71.5702 45.1352C68.8752 44.3581 65.8807 46.3308 64.9824 49.4992C64.9225 49.6188 64.8027 49.7383 64.6829 49.7981C64.5033 49.8579 64.3835 49.7981 64.2637 49.6785C62.7665 47.8851 62.1676 45.4341 62.1077 45.3743V45.3146C62.0478 44.5374 62.467 38.7985 62.6467 36.8855C62.7066 36.5268 62.467 36.1682 62.1676 36.0486C61.5687 35.8095 56.2984 33.7172 52.1661 35.6301C47.9738 37.5431 43.7816 36.2279 42.1646 35.5704C41.925 35.4508 41.0267 35.6899 40.7871 35.8693C40.7871 38.0214 40.7272 40.1735 40.7272 40.1735V40.4724C43.7816 40.1735 45.5783 42.206 45.6381 42.2658C45.8178 42.4451 45.7579 42.744 45.5783 42.9233C45.5184 42.9831 45.3986 43.0429 45.2788 43.0429C45.159 43.0429 45.0393 42.9831 44.9195 42.8636C44.8596 42.8038 43.3624 41.1299 40.6673 41.3691L40.5476 48.3036C39.5893 57.9282 40.0684 68.3898 41.5058 70.1832C42.2844 71.1397 44.9195 71.4984 46.776 71.5582C46.7162 71.5582 46.6563 71.5582 46.6563 71.5582C46.2969 71.5582 46.237 71.8571 46.237 71.8571L46.1771 72.4549Z" fill="black"/>
<ellipse cx="3" cy="38.5" rx="24" ry="26.5" fill="#B8B4FE"/>
</g>
<defs>
<clipPath id="clip0_10528_5738">
<rect width="120" height="120" rx="60" fill="white"/>
</clipPath>
</defs>
</svg>
