<svg width="16" height="16" viewBox="0 0 16 16" fill="none" xmlns="http://www.w3.org/2000/svg">
<g clip-path="url(#clip0_9476_982)">
<path opacity="0.992" fill-rule="evenodd" clip-rule="evenodd" d="M7.70555 0C10.8207 0.00519275 13.2129 1.30803 14.8821 3.90852C16.1409 6.14949 16.338 8.48144 15.4733 10.9044C14.2636 13.745 12.1342 15.4255 9.08501 15.9461C6.00517 16.2585 3.50351 15.213 1.57999 12.8094C-0.0828026 10.4318 -0.433146 7.86997 0.528966 5.12377C1.35119 3.10816 2.74709 1.63564 4.71666 0.70616C5.67451 0.288738 6.67077 0.0533531 7.70555 0ZM11.9754 4.72963C12.3974 4.73095 12.5342 4.92802 12.3859 5.32084C10.5685 7.40101 8.75109 9.48117 6.93365 11.5613C6.76581 11.7135 6.58517 11.73 6.39173 11.6106C5.59797 10.5541 4.80426 9.4976 4.0105 8.44107C3.87255 8.20144 3.92182 8.00981 4.1583 7.86629C4.25684 7.84437 4.35537 7.84437 4.4539 7.86629C5.05605 8.27136 5.65824 8.67648 6.26037 9.08155C6.42384 9.20192 6.59904 9.22379 6.78587 9.14725C8.51195 7.66635 10.2418 6.19376 11.9754 4.72963Z" fill="white"/>
</g>
<defs>
<clipPath id="clip0_9476_982">
<rect width="16" height="16" fill="white"/>
</clipPath>
</defs>
</svg>
